StickNoBills-tamil-0.ufo
<glyph name="tml_Ii" format="1">
  <advance width="585"/>
  <unicode hex="0B88"/>
  <outline>
    <contour>
      <point x="422" y="253" type="curve" smooth="yes"/>
      <point x="422" y="228"/>
      <point x="443" y="207"/>
      <point x="468" y="207" type="curve" smooth="yes"/>
      <point x="493" y="207"/>
      <point x="515" y="228"/>
      <point x="515" y="253" type="curve" smooth="yes"/>
      <point x="515" y="278"/>
      <point x="493" y="300"/>
      <point x="468" y="300" type="curve" smooth="yes"/>
      <point x="443" y="300"/>
      <point x="422" y="278"/>
    </contour>
    <contour>
      <point x="177" y="254" type="curve" smooth="yes"/>
      <point x="177" y="228"/>
      <point x="198" y="207"/>
      <point x="224" y="207" type="curve" smooth="yes"/>
      <point x="249" y="207"/>
      <point x="270" y="228"/>
      <point x="270" y="254" type="curve" smooth="yes"/>
      <point x="270" y="279"/>
      <point x="249" y="300"/>
      <point x="224" y="300" type="curve" smooth="yes"/>
      <point x="198" y="300"/>
      <point x="177" y="279"/>
    </contour>
    <contour>
      <point x="343" y="0" type="line"/>
      <point x="383" y="0" type="line"/>
      <point x="383" y="594" type="line"/>
      <point x="343" y="594" type="line"/>
    </contour>
    <contour>
      <point x="60" y="1" type="line"/>
      <point x="100" y="1" type="line"/>
      <point x="100" y="594" type="line"/>
      <point x="60" y="593" type="line"/>
    </contour>
    <contour>
      <point x="248" y="555" type="line"/>
      <point x="525" y="555" type="line"/>
      <point x="525" y="596" type="line"/>
      <point x="248" y="596" type="line"/>
    </contour>
    <contour>
      <point x="60" y="555" type="line"/>
      <point x="194" y="555" type="line"/>
      <point x="194" y="596" type="line"/>
      <point x="60" y="596" type="line"/>
    </contour>
  </outline>
</glyph>
<glyph name="tml_E" format="1">
  <advance width="656"/>
  <unicode hex="0B8E"/>
  <outline>
    <contour>
      <point x="40" y="172" type="line" smooth="yes"/>
      <point x="40" y="88"/>
      <point x="104" y="0"/>
      <point x="192" y="0" type="curve" smooth="yes"/>
      <point x="192" y="40" type="line"/>
      <point x="142" y="40"/>
      <point x="79" y="91"/>
      <point x="79" y="181" type="curve" smooth="yes"/>
      <point x="79" y="295"/>
      <point x="155" y="319"/>
      <point x="192" y="319" type="curve" smooth="yes"/>
      <point x="192" y="359" type="line"/>
      <point x="116" y="359"/>
      <point x="40" y="300"/>
      <point x="40" y="196" type="curve" smooth="yes"/>
    </contour>
    <contour>
      <point x="247" y="0" type="line"/>
      <point x="319" y="0"/>
      <point x="384" y="75"/>
      <point x="383" y="173" type="curve" smooth="yes"/>
      <point x="383" y="196" type="line" smooth="yes"/>
      <point x="383" y="292"/>
      <point x="320" y="359"/>
      <point x="247" y="359" type="curve" smooth="yes"/>
      <point x="247" y="319" type="line"/>
      <point x="289" y="319"/>
      <point x="341" y="282"/>
      <point x="341" y="183" type="curve" smooth="yes"/>
      <point x="341" y="88"/>
      <point x="291" y="40"/>
      <point x="247" y="40" type="curve"/>
    </contour>
    <contour>
      <point x="40" y="204" type="line"/>
      <point x="80" y="306" type="line" smooth="yes"/>
      <point x="82" y="439"/>
      <point x="150" y="557"/>
      <point x="267" y="557" type="curve"/>
      <point x="267" y="597" type="line"/>
      <point x="127" y="597"/>
      <point x="40" y="464"/>
      <point x="40" y="302" type="curve"/>
    </contour>
    <contour>
      <point x="486" y="0" type="line"/>
      <point x="526" y="0" type="line"/>
      <point x="526" y="577" type="line"/>
      <point x="486" y="577" type="line"/>
    </contour>
    <contour>
      <point x="322" y="555" type="line"/>
      <point x="627" y="555" type="line"/>
      <point x="627" y="595" type="line"/>
      <point x="322" y="595" type="line"/>
    </contour>
  </outline>
</glyph>
<glyph name="tml_Oo" format="1">
  <advance width="819"/>
  <unicode hex="0B93"/>
  <outline>
    <contour>
      <point x="442" y="655" type="line"/>
      <point x="643" y="655"/>
      <point x="739" y="488"/>
      <point x="739" y="398" type="curve" smooth="yes"/>
      <point x="739" y="164" type="line" smooth="yes"/>
      <point x="733" y="30"/>
      <point x="486" y="47"/>
      <point x="486" y="162" type="curve"/>
      <point x="486" y="350" type="line"/>
      <point x="446" y="350" type="line" smooth="yes"/>
      <point x="446" y="166" type="line" smooth="yes"/>
      <point x="446" y="-16"/>
      <point x="779" y="-17"/>
      <point x="779" y="165" type="curve" smooth="yes"/>
      <point x="779" y="398" type="line" smooth="yes"/>
      <point x="779" y="494"/>
      <point x="679" y="695"/>
      <point x="442" y="695" type="curve"/>
    </contour>
    <contour>
      <point x="182" y="-141" type="curve" smooth="yes"/>
      <point x="182" y="-226"/>
      <point x="244" y="-300"/>
      <point x="345" y="-301" type="curve" smooth="yes"/>
      <point x="448" y="-302"/>
      <point x="517" y="-231"/>
      <point x="549" y="-163" type="curve"/>
      <point x="514" y="-143" type="line"/>
      <point x="502" y="-166"/>
      <point x="499" y="-172"/>
      <point x="491" y="-183" type="curve" smooth="yes"/>
      <point x="405" y="-305"/>
      <point x="222" y="-276"/>
      <point x="222" y="-143" type="curve" smooth="yes"/>
      <point x="222" y="-90"/>
      <point x="246" y="-21"/>
      <point x="349" y="-21" type="curve"/>
      <point x="349" y="19" type="line"/>
      <point x="221" y="19"/>
      <point x="182" y="-64"/>
    </contour>
    <contour>
      <point x="40" y="202" type="line" smooth="yes"/>
      <point x="40" y="118"/>
      <point x="104" y="30"/>
      <point x="192" y="30" type="curve" smooth="yes"/>
      <point x="192" y="70" type="line"/>
      <point x="142" y="70"/>
      <point x="79" y="121"/>
      <point x="79" y="211" type="curve" smooth="yes"/>
      <point x="79" y="325"/>
      <point x="155" y="349"/>
      <point x="192" y="349" type="curve" smooth="yes"/>
      <point x="192" y="389" type="line"/>
      <point x="116" y="389"/>
      <point x="40" y="330"/>
      <point x="40" y="226" type="curve" smooth="yes"/>
    </contour>
    <contour>
      <point x="247" y="30" type="line"/>
      <point x="319" y="30"/>
      <point x="384" y="105"/>
      <point x="383" y="203" type="curve" smooth="yes"/>
      <point x="383" y="226" type="line" smooth="yes"/>
      <point x="383" y="322"/>
      <point x="320" y="389"/>
      <point x="247" y="389" type="curve" smooth="yes"/>
      <point x="247" y="349" type="line"/>
      <point x="289" y="349"/>
      <point x="341" y="312"/>
      <point x="341" y="213" type="curve" smooth="yes"/>
      <point x="341" y="118"/>
      <point x="291" y="70"/>
      <point x="247" y="70" type="curve"/>
    </contour>
    <contour>
      <point x="446" y="25" type="line" smooth="yes"/>
      <point x="446" y="-66"/>
      <point x="552" y="-132"/>
      <point x="715" y="-132" type="curve"/>
      <point x="715" y="-92" type="line" smooth="yes"/>
      <point x="619" y="-94"/>
      <point x="486" y="-61"/>
      <point x="486" y="27" type="curve" smooth="yes"/>
      <point x="486" y="175" type="line" smooth="yes"/>
      <point x="446" y="276" type="line"/>
    </contour>
    <contour>
      <point x="40" y="228" type="line"/>
      <point x="51" y="256"/>
      <point x="55" y="283"/>
      <point x="82" y="332" type="curve"/>
      <point x="90" y="502"/>
      <point x="178" y="655"/>
      <point x="389" y="655" type="curve"/>
      <point x="389" y="695" type="line"/>
      <point x="117" y="695"/>
      <point x="40" y="467"/>
      <point x="40" y="310" type="curve"/>
    </contour>
  </outline>
</glyph>
<glyph name="tml_Sha" format="1">
  <advance width="852"/>
  <unicode hex="0BB6"/>
  <outline>
    <contour>
      <point x="561" y="0" type="move" name="tml_virama"/>
    </contour>
    <contour>
      <point x="58" y="132" type="line" smooth="yes"/>
      <point x="58" y="61"/>
      <point x="95" y="0"/>
      <point x="177" y="0" type="curve" smooth="yes"/>
      <point x="182" y="0" type="line"/>
      <point x="182" y="40" type="line"/>
      <point x="133" y="40"/>
      <point x="98" y="63"/>
      <point x="98" y="136" type="curve" smooth="yes"/>
      <point x="98" y="595" type="line" smooth="yes"/>
      <point x="58" y="595" type="line"/>
    </contour>
    <contour>
      <point x="236" y="0" type="line"/>
      <point x="241" y="0" type="line" smooth="yes"/>
      <point x="328" y="0"/>
      <point x="361" y="80"/>
      <point x="361" y="126" type="curve"/>
      <point x="361" y="582" type="line"/>
      <point x="321" y="582" type="line"/>
      <point x="321" y="130" type="line"/>
      <point x="321" y="71"/>
      <point x="283" y="40"/>
      <point x="236" y="40" type="curve"/>
    </contour>
    <contour>
      <point x="485" y="132" type="line" smooth="yes"/>
      <point x="485" y="49"/>
      <point x="530" y="0"/>
      <point x="603" y="0" type="curve" smooth="yes"/>
      <point x="607" y="0" type="line"/>
      <point x="607" y="40" type="line"/>
      <point x="552" y="40"/>
      <point x="525" y="72"/>
      <point x="525" y="136" type="curve" smooth="yes"/>
      <point x="525" y="595" type="line" smooth="yes"/>
      <point x="485" y="595" type="line"/>
    </contour>
    <contour>
      <point x="661" y="0" type="line"/>
      <point x="664" y="0" type="line" smooth="yes"/>
      <point x="739" y="0"/>
      <point x="786" y="63"/>
      <point x="786" y="128" type="curve"/>
      <point x="786" y="582" type="line"/>
      <point x="746" y="582" type="line"/>
      <point x="746" y="132" type="line"/>
      <point x="746" y="73"/>
      <point x="708" y="40"/>
      <point x="661" y="40" type="curve"/>
    </contour>
    <contour>
      <point x="321" y="555" type="line"/>
      <point x="786" y="555" type="line"/>
      <point x="786" y="595" type="line"/>
      <point x="321" y="595" type="line"/>
    </contour>
  </outline>
</glyph>
<glyph name="tml_Sa" format="1">
  <advance width="1167"/>
  <unicode hex="0BB8"/>
  <outline>
    <contour>
      <point x="531" y="0" type="move" name="tml_virama"/>
    </contour>
    <contour>
      <point x="707" y="566" type="line"/>
      <point x="803" y="566"/>
      <point x="802" y="458"/>
      <point x="802" y="397" type="curve" smooth="yes"/>
      <point x="802" y="107" type="line" smooth="yes"/>
      <point x="802" y="49"/>
      <point x="861" y="0"/>
      <point x="924" y="0" type="curve"/>
      <point x="924" y="40" type="line"/>
      <point x="882" y="40"/>
      <point x="843" y="72"/>
      <point x="843" y="109" type="curve" smooth="yes"/>
      <point x="843" y="405" type="line" smooth="yes"/>
      <point x="843" y="507"/>
      <point x="819" y="606"/>
      <point x="707" y="606" type="curve"/>
    </contour>
    <contour>
      <point x="978" y="0" type="line"/>
      <point x="1088" y="0"/>
      <point x="1144" y="82"/>
      <point x="1144" y="167" type="curve" smooth="yes"/>
      <point x="1144" y="426" type="line" smooth="yes"/>
      <point x="1144" y="543"/>
      <point x="1091" y="597"/>
      <point x="971" y="596" type="curve"/>
      <point x="971" y="556" type="line"/>
      <point x="1096" y="556"/>
      <point x="1104" y="490"/>
      <point x="1104" y="424" type="curve"/>
      <point x="1104" y="167" type="line"/>
      <point x="1104" y="116"/>
      <point x="1075" y="40"/>
      <point x="978" y="40" type="curve"/>
    </contour>
    <contour>
      <point x="76" y="172" type="line" smooth="yes"/>
      <point x="76" y="88"/>
      <point x="140" y="0"/>
      <point x="228" y="0" type="curve" smooth="yes"/>
      <point x="228" y="40" type="line"/>
      <point x="178" y="40"/>
      <point x="115" y="91"/>
      <point x="115" y="181" type="curve" smooth="yes"/>
      <point x="115" y="295"/>
      <point x="191" y="319"/>
      <point x="228" y="319" type="curve" smooth="yes"/>
      <point x="228" y="359" type="line"/>
      <point x="152" y="359"/>
      <point x="76" y="300"/>
      <point x="76" y="196" type="curve" smooth="yes"/>
    </contour>
    <contour>
      <point x="283" y="0" type="line"/>
      <point x="355" y="0"/>
      <point x="420" y="75"/>
      <point x="419" y="173" type="curve" smooth="yes"/>
      <point x="419" y="196" type="line" smooth="yes"/>
      <point x="419" y="292"/>
      <point x="356" y="359"/>
      <point x="283" y="359" type="curve" smooth="yes"/>
      <point x="283" y="319" type="line"/>
      <point x="325" y="319"/>
      <point x="377" y="282"/>
      <point x="377" y="183" type="curve" smooth="yes"/>
      <point x="377" y="88"/>
      <point x="327" y="40"/>
      <point x="283" y="40" type="curve"/>
    </contour>
    <contour>
      <point x="353" y="565" type="line"/>
      <point x="466" y="565"/>
      <point x="516" y="472"/>
      <point x="516" y="354" type="curve"/>
      <point x="516" y="0" type="line"/>
      <point x="556" y="0" type="line"/>
      <point x="556" y="355" type="line"/>
      <point x="556" y="454"/>
      <point x="515" y="605"/>
      <point x="353" y="605" type="curve"/>
    </contour>
    <contour>
      <point x="76" y="204" type="line"/>
      <point x="116" y="306" type="line" smooth="yes"/>
      <point x="118" y="443"/>
      <point x="185" y="565"/>
      <point x="299" y="565" type="curve"/>
      <point x="299" y="605" type="line"/>
      <point x="161" y="605"/>
      <point x="76" y="469"/>
      <point x="76" y="302" type="curve"/>
    </contour>
    <contour>
      <point x="516" y="325" type="curve"/>
      <point x="556" y="326" type="line"/>
      <point x="556" y="454"/>
      <point x="569" y="565"/>
      <point x="653" y="565" type="curve"/>
      <point x="653" y="605" type="line"/>
      <point x="522" y="605"/>
      <point x="516" y="440"/>
    </contour>
  </outline>
</glyph>
<glyph name="tml_Three" format="1">
  <advance width="734"/>
  <unicode hex="0BE9"/>
  <outline>
    <contour>
      <point x="298" y="0" type="line"/>
      <point x="640" y="0" type="line"/>
      <point x="640" y="40" type="line"/>
      <point x="298" y="40" type="line"/>
    </contour>
    <contour>
      <point x="255" y="0" type="line"/>
      <point x="417" y="0" type="line" smooth="yes"/>
      <point x="511" y="0"/>
      <point x="585" y="31"/>
      <point x="585" y="112" type="curve" smooth="yes"/>
      <point x="585" y="230" type="line" smooth="yes"/>
      <point x="585" y="331"/>
      <point x="486" y="354"/>
      <point x="416" y="354" type="curve"/>
      <point x="416" y="314" type="line" smooth="yes"/>
      <point x="451" y="313"/>
      <point x="545" y="309"/>
      <point x="545" y="230" type="curve" smooth="yes"/>
      <point x="545" y="120" type="line" smooth="yes"/>
      <point x="545" y="45"/>
      <point x="480" y="40"/>
      <point x="418" y="40" type="curve" smooth="yes"/>
      <point x="255" y="40" type="line"/>
    </contour>
    <contour>
      <point x="321" y="177" type="line"/>
      <point x="361" y="177" type="line"/>
      <point x="361" y="589" type="line"/>
      <point x="321" y="589" type="line"/>
    </contour>
    <contour>
      <point x="82" y="0" type="line"/>
      <point x="122" y="0" type="line"/>
      <point x="122" y="591" type="line"/>
      <point x="82" y="591" type="line"/>
    </contour>
    <contour>
      <point x="82" y="595" type="line"/>
      <point x="83" y="555" type="line"/>
      <point x="470" y="555" type="line"/>
      <point x="470" y="595" type="line"/>
    </contour>
  </outline>
</glyph>
<glyph name="tml_Year" format="1">
  <advance width="1689"/>
  <unicode hex="0BF5"/>
  <outline>
    <contour>
      <point x="79" y="36" type="line" smooth="yes"/>
      <point x="79" y="-94"/>
      <point x="146" y="-158"/>
      <point x="233" y="-158" type="curve" smooth="yes"/>
      <point x="726" y="-158" type="line"/>
      <point x="726" y="-118" type="line"/>
      <point x="240" y="-118" type="line" smooth="yes"/>
      <point x="175" y="-118"/>
      <point x="119" y="-77"/>
      <point x="119" y="35" type="curve" smooth="yes"/>
      <point x="119" y="558" type="line" smooth="yes"/>
      <point x="119" y="654"/>
      <point x="172" y="696"/>
      <point x="239" y="696" type="curve"/>
      <point x="726" y="696" type="line"/>
      <point x="726" y="736" type="line"/>
      <point x="238" y="736" type="line"/>
      <point x="170" y="736"/>
      <point x="79" y="696"/>
      <point x="79" y="562" type="curve" smooth="yes"/>
    </contour>
    <contour>
      <point x="490" y="565" type="line"/>
      <point x="607" y="565"/>
      <point x="665" y="473"/>
      <point x="666" y="354" type="curve"/>
      <point x="666" y="76" type="line" smooth="yes"/>
      <point x="666" y="40"/>
      <point x="660" y="40"/>
      <point x="593" y="40" type="curve"/>
      <point x="593" y="0" type="line"/>
      <point x="832" y="0" type="line"/>
      <point x="832" y="40" type="line"/>
      <point x="707" y="40" type="line"/>
      <point x="707" y="355" type="line"/>
      <point x="706" y="466"/>
      <point x="652" y="605"/>
      <point x="490" y="605" type="curve"/>
    </contour>
    <contour>
      <point x="779" y="-118" type="line"/>
      <point x="779" y="-158" type="line"/>
      <point x="1252" y="-158" type="line" smooth="yes"/>
      <point x="1346" y="-158"/>
      <point x="1391" y="-90"/>
      <point x="1391" y="4" type="curve" smooth="yes"/>
      <point x="1391" y="115" type="line" smooth="yes"/>
      <point x="1391" y="223"/>
      <point x="1313" y="260"/>
      <point x="1265" y="266" type="curve"/>
      <point x="1265" y="226" type="line"/>
      <point x="1290" y="226"/>
      <point x="1351" y="196"/>
      <point x="1351" y="116" type="curve" smooth="yes"/>
      <point x="1351" y="1" type="line" smooth="yes"/>
      <point x="1351" y="-85"/>
      <point x="1308" y="-118"/>
      <point x="1251" y="-118" type="curve" smooth="yes"/>
    </contour>
    <contour>
      <point x="216" y="172" type="line" smooth="yes"/>
      <point x="216" y="88"/>
      <point x="280" y="0"/>
      <point x="368" y="0" type="curve" smooth="yes"/>
      <point x="368" y="40" type="line"/>
      <point x="318" y="40"/>
      <point x="255" y="91"/>
      <point x="255" y="181" type="curve" smooth="yes"/>
      <point x="255" y="295"/>
      <point x="331" y="319"/>
      <point x="368" y="319" type="curve" smooth="yes"/>
      <point x="368" y="359" type="line"/>
      <point x="292" y="359"/>
      <point x="216" y="300"/>
      <point x="216" y="196" type="curve" smooth="yes"/>
    </contour>
    <contour>
      <point x="423" y="0" type="line"/>
      <point x="495" y="0"/>
      <point x="560" y="75"/>
      <point x="559" y="173" type="curve" smooth="yes"/>
      <point x="559" y="196" type="line" smooth="yes"/>
      <point x="559" y="292"/>
      <point x="496" y="359"/>
      <point x="423" y="359" type="curve" smooth="yes"/>
      <point x="423" y="319" type="line"/>
      <point x="465" y="319"/>
      <point x="517" y="282"/>
      <point x="517" y="183" type="curve" smooth="yes"/>
      <point x="517" y="88"/>
      <point x="467" y="40"/>
      <point x="423" y="40" type="curve"/>
    </contour>
    <contour>
      <point x="779" y="696" type="line" smooth="yes"/>
      <point x="1238" y="696" type="line" smooth="yes"/>
      <point x="1389" y="696"/>
      <point x="1362" y="563"/>
      <point x="1412" y="517" type="curve"/>
      <point x="1454" y="517" type="line"/>
      <point x="1403" y="561"/>
      <point x="1432" y="736"/>
      <point x="1236" y="736" type="curve" smooth="yes"/>
      <point x="779" y="736" type="line"/>
    </contour>
    <contour>
      <point x="216" y="204" type="line"/>
      <point x="256" y="306" type="line" smooth="yes"/>
      <point x="258" y="443"/>
      <point x="325" y="565"/>
      <point x="439" y="565" type="curve"/>
      <point x="439" y="605" type="line"/>
      <point x="301" y="605"/>
      <point x="216" y="469"/>
      <point x="216" y="302" type="curve"/>
    </contour>
    <contour>
      <point x="887" y="0" type="line"/>
      <point x="927" y="0" type="line"/>
      <point x="927" y="593" type="line"/>
      <point x="887" y="592" type="line"/>
    </contour>
    <contour>
      <point x="887" y="555" type="line"/>
      <point x="1022" y="555" type="line"/>
      <point x="1022" y="595" type="line"/>
      <point x="887" y="595" type="line"/>
    </contour>
    <contour>
      <point x="1170" y="0" type="line"/>
      <point x="1210" y="0" type="line"/>
      <point x="1210" y="593" type="line"/>
      <point x="1170" y="593" type="line"/>
    </contour>
    <contour>
      <point x="1075" y="555" type="line"/>
      <point x="1294" y="555" type="line"/>
      <point x="1294" y="595" type="line"/>
      <point x="1075" y="595" type="line"/>
    </contour>
  </outline>
</glyph>
<glyph name="tml_CU" format="1">
  <advance width="706"/>
  <outline>
    <contour>
      <point x="40" y="205" type="curve"/>
      <point x="81" y="205" type="line"/>
      <point x="81" y="318"/>
      <point x="187" y="331"/>
      <point x="239" y="331" type="curve" smooth="yes"/>
      <point x="462" y="331" type="line"/>
      <point x="462" y="371" type="line"/>
      <point x="246" y="371" type="line" smooth="yes"/>
      <point x="80" y="371"/>
      <point x="40" y="274"/>
    </contour>
    <contour>
      <point x="284" y="-1" type="line"/>
      <point x="408" y="-1"/>
      <point x="446" y="95"/>
      <point x="446" y="191" type="curve" smooth="yes"/>
      <point x="446" y="588" type="line"/>
      <point x="406" y="588" type="line"/>
      <point x="406" y="187" type="line" smooth="yes"/>
      <point x="406" y="98"/>
      <point x="366" y="39"/>
      <point x="284" y="39" type="curve"/>
    </contour>
    <contour>
      <point x="231" y="-1" type="curve"/>
      <point x="231" y="39" type="line"/>
      <point x="172" y="39"/>
      <point x="81" y="82"/>
      <point x="81" y="168" type="curve" smooth="yes"/>
      <point x="81" y="168"/>
      <point x="40" y="168"/>
      <point x="40" y="168" type="curve" smooth="yes"/>
      <point x="40" y="117"/>
      <point x="62" y="0"/>
    </contour>
    <contour>
      <point x="165" y="348" type="line"/>
      <point x="205" y="348" type="line"/>
      <point x="206" y="586" type="line"/>
      <point x="165" y="586" type="line"/>
    </contour>
    <contour>
      <point x="165" y="555" type="line"/>
      <point x="289" y="555" type="line"/>
      <point x="289" y="595" type="line"/>
      <point x="165" y="595" type="line"/>
    </contour>
    <contour>
      <point x="343" y="555" type="line"/>
      <point x="593" y="555" type="line"/>
      <point x="593" y="595" type="line"/>
      <point x="343" y="595" type="line"/>
    </contour>
    <contour>
      <point x="593" y="0" type="line"/>
      <point x="633" y="0" type="line"/>
      <point x="633" y="350" type="line"/>
      <point x="593" y="350" type="line"/>
    </contour>
    <contour>
      <point x="501" y="331" type="line"/>
      <point x="680" y="331" type="line"/>
      <point x="680" y="371" type="line"/>
      <point x="501" y="371" type="line"/>
    </contour>
  </outline>
</glyph>
<glyph name="tml_JU" format="1">
  <advance width="1201"/>
  <outline>
    <contour>
      <point x="675" y="644" type="line"/>
      <point x="992" y="644" type="line" smooth="yes"/>
      <point x="1089" y="644"/>
      <point x="1121" y="613"/>
      <point x="1121" y="558" type="curve" smooth="yes"/>
      <point x="1121" y="540"/>
      <point x="1102" y="486"/>
      <point x="1047" y="486" type="curve" smooth="yes"/>
      <point x="988" y="486"/>
      <point x="971" y="539"/>
      <point x="971" y="559" type="curve" smooth="yes"/>
      <point x="931" y="559" type="line"/>
      <point x="931" y="509"/>
      <point x="973" y="446"/>
      <point x="1042" y="446" type="curve" smooth="yes"/>
      <point x="1054" y="446" type="line" smooth="yes"/>
      <point x="1109" y="446"/>
      <point x="1161" y="500"/>
      <point x="1161" y="559" type="curve" smooth="yes"/>
      <point x="1161" y="566" type="line" smooth="yes"/>
      <point x="1161" y="633"/>
      <point x="1111" y="684"/>
      <point x="996" y="684" type="curve" smooth="yes"/>
      <point x="675" y="684" type="line"/>
    </contour>
    <component base="tml_Ja" xOffset="-27"/>
  </outline>
</glyph>
<glyph name="tml_KSsUu" format="1">
  <advance width="2068"/>
  <outline>
    <contour>
      <point x="1394" y="568" type="line"/>
      <point x="1708" y="568" type="line" smooth="yes"/>
      <point x="1805" y="568"/>
      <point x="1837" y="537"/>
      <point x="1837" y="482" type="curve" smooth="yes"/>
      <point x="1837" y="464"/>
      <point x="1818" y="410"/>
      <point x="1763" y="410" type="curve" smooth="yes"/>
      <point x="1704" y="410"/>
      <point x="1687" y="463"/>
      <point x="1687" y="483" type="curve" smooth="yes"/>
      <point x="1647" y="483" type="line"/>
      <point x="1647" y="433"/>
      <point x="1689" y="370"/>
      <point x="1758" y="370" type="curve" smooth="yes"/>
      <point x="1770" y="370" type="line" smooth="yes"/>
      <point x="1825" y="370"/>
      <point x="1877" y="424"/>
      <point x="1877" y="483" type="curve" smooth="yes"/>
      <point x="1877" y="490" type="line" smooth="yes"/>
      <point x="1877" y="557"/>
      <point x="1827" y="608"/>
      <point x="1712" y="608" type="curve" smooth="yes"/>
      <point x="1394" y="608" type="line"/>
    </contour>
    <contour>
      <point x="1644" y="605" type="curve" smooth="yes"/>
      <point x="1684" y="605" type="line"/>
      <point x="1684" y="707"/>
      <point x="1729" y="765"/>
      <point x="1836" y="765" type="curve" smooth="yes"/>
      <point x="1946" y="765"/>
      <point x="1988" y="706"/>
      <point x="1988" y="649" type="curve" smooth="yes"/>
      <point x="1988" y="325" type="line" smooth="yes"/>
      <point x="1988" y="243"/>
      <point x="1936" y="240"/>
      <point x="1890" y="240" type="curve" smooth="yes"/>
      <point x="1831" y="240" type="line" smooth="yes"/>
      <point x="1831" y="200" type="line" smooth="yes"/>
      <point x="1890" y="200" type="line" smooth="yes"/>
      <point x="1991" y="200"/>
      <point x="2028" y="247"/>
      <point x="2028" y="325" type="curve" smooth="yes"/>
      <point x="2028" y="649" type="line" smooth="yes"/>
      <point x="2028" y="754"/>
      <point x="1939" y="805"/>
      <point x="1836" y="805" type="curve" smooth="yes"/>
      <point x="1721" y="805"/>
      <point x="1644" y="747"/>
    </contour>
    <contour>
      <point x="852" y="489" type="line"/>
      <point x="980" y="489"/>
      <point x="1027" y="417"/>
      <point x="1028" y="287" type="curve"/>
      <point x="1028" y="77" type="line" smooth="yes"/>
      <point x="1028" y="41"/>
      <point x="1022" y="41"/>
      <point x="955" y="41" type="curve"/>
      <point x="955" y="1" type="line"/>
      <point x="1340" y="1" type="line"/>
      <point x="1340" y="41" type="line"/>
      <point x="1069" y="41" type="line"/>
      <point x="1069" y="288" type="line"/>
      <point x="1068" y="429"/>
      <point x="1014" y="529"/>
      <point x="852" y="529" type="curve"/>
    </contour>
    <contour>
      <point x="40" y="162" type="line" smooth="yes"/>
      <point x="40" y="118"/>
      <point x="57" y="-4"/>
      <point x="230" y="-5" type="curve"/>
      <point x="230" y="35" type="line"/>
      <point x="168" y="35"/>
      <point x="80" y="48"/>
      <point x="80" y="178" type="curve" smooth="yes"/>
      <point x="80" y="287"/>
      <point x="184" y="300"/>
      <point x="239" y="300" type="curve" smooth="yes"/>
      <point x="616" y="300" type="line"/>
      <point x="616" y="340" type="line"/>
      <point x="246" y="340" type="line" smooth="yes"/>
      <point x="79" y="340"/>
      <point x="40" y="251"/>
      <point x="40" y="186" type="curve" smooth="yes"/>
    </contour>
    <contour>
      <point x="1199" y="335" type="line" smooth="yes"/>
      <point x="1199" y="192"/>
      <point x="1259" y="159"/>
      <point x="1341" y="159" type="curve"/>
      <point x="1341" y="198" type="line"/>
      <point x="1305" y="198"/>
      <point x="1239" y="202"/>
      <point x="1239" y="318" type="curve" smooth="yes"/>
      <point x="1239" y="436" type="line" smooth="yes"/>
      <point x="1239" y="571"/>
      <point x="1308" y="568"/>
      <point x="1341" y="568" type="curve"/>
      <point x="1341" y="608" type="line"/>
      <point x="1259" y="608"/>
      <point x="1199" y="571"/>
      <point x="1199" y="434" type="curve" smooth="yes"/>
    </contour>
    <contour>
      <point x="578" y="173" type="line" smooth="yes"/>
      <point x="578" y="89"/>
      <point x="642" y="1"/>
      <point x="730" y="1" type="curve" smooth="yes"/>
      <point x="730" y="41" type="line"/>
      <point x="680" y="41"/>
      <point x="617" y="92"/>
      <point x="617" y="182" type="curve" smooth="yes"/>
      <point x="617" y="296"/>
      <point x="693" y="320"/>
      <point x="730" y="320" type="curve" smooth="yes"/>
      <point x="730" y="360" type="line"/>
      <point x="654" y="360"/>
      <point x="578" y="301"/>
      <point x="578" y="197" type="curve" smooth="yes"/>
    </contour>
    <contour>
      <point x="785" y="1" type="line"/>
      <point x="857" y="1"/>
      <point x="922" y="76"/>
      <point x="921" y="174" type="curve" smooth="yes"/>
      <point x="921" y="197" type="line" smooth="yes"/>
      <point x="921" y="293"/>
      <point x="858" y="360"/>
      <point x="785" y="360" type="curve" smooth="yes"/>
      <point x="785" y="320" type="line"/>
      <point x="827" y="320"/>
      <point x="879" y="283"/>
      <point x="879" y="184" type="curve" smooth="yes"/>
      <point x="879" y="89"/>
      <point x="829" y="41"/>
      <point x="785" y="41" type="curve"/>
    </contour>
    <contour>
      <point x="283" y="-5" type="line"/>
      <point x="420" y="-5"/>
      <point x="463" y="91"/>
      <point x="463" y="187" type="curve" smooth="yes"/>
      <point x="463" y="664" type="line"/>
      <point x="423" y="664" type="line"/>
      <point x="423" y="183" type="line" smooth="yes"/>
      <point x="423" y="94"/>
      <point x="378" y="35"/>
      <point x="283" y="35" type="curve"/>
    </contour>
    <contour>
      <point x="1394" y="568" type="line"/>
      <point x="1434" y="568"/>
      <point x="1494" y="558"/>
      <point x="1494" y="414" type="curve" smooth="yes"/>
      <point x="1494" y="124" type="line"/>
      <point x="1534" y="124" type="line"/>
      <point x="1534" y="414" type="line" smooth="yes"/>
      <point x="1534" y="562"/>
      <point x="1474" y="608"/>
      <point x="1394" y="608" type="curve"/>
    </contour>
    <contour>
      <point x="578" y="205" type="line"/>
      <point x="618" y="307" type="line" smooth="yes"/>
      <point x="620" y="405"/>
      <point x="687" y="489"/>
      <point x="801" y="489" type="curve"/>
      <point x="801" y="529" type="line"/>
      <point x="663" y="529"/>
      <point x="578" y="427"/>
      <point x="578" y="303" type="curve"/>
    </contour>
    <contour>
      <point x="165" y="317" type="line"/>
      <point x="205" y="317" type="line"/>
      <point x="206" y="662" type="line"/>
      <point x="165" y="662" type="line"/>
    </contour>
    <contour>
      <point x="165" y="631" type="line"/>
      <point x="288" y="631" type="line"/>
      <point x="288" y="671" type="line"/>
      <point x="165" y="671" type="line"/>
    </contour>
    <contour>
      <point x="342" y="631" type="line"/>
      <point x="610" y="631" type="line"/>
      <point x="610" y="671" type="line"/>
      <point x="342" y="671" type="line"/>
    </contour>
    <contour>
      <point x="1494" y="84" type="line"/>
      <point x="1494" y="-177" type="line"/>
      <point x="1534" y="-177" type="line"/>
      <point x="1534" y="84" type="line"/>
    </contour>
    <contour>
      <point x="1394" y="2" type="line"/>
      <point x="1670" y="1" type="line"/>
      <point x="1670" y="42" type="line"/>
      <point x="1394" y="42" type="line"/>
    </contour>
    <contour>
      <point x="1394" y="159" type="line"/>
      <point x="1670" y="159" type="line"/>
      <point x="1670" y="199" type="line" smooth="yes"/>
      <point x="1394" y="199" type="line"/>
    </contour>
    <contour>
      <point x="1630" y="1" type="line"/>
      <point x="1670" y="1" type="line"/>
      <point x="1670" y="199" type="line"/>
      <point x="1630" y="199" type="line"/>
    </contour>
  </outline>
</glyph>
<glyph name="tml_LllI" format="1">
  <advance width="728"/>
  <outline>
    <contour>
      <point x="364" y="565" type="curve"/>
      <point x="418" y="565" type="line"/>
      <point x="508" y="565"/>
      <point x="502" y="442"/>
      <point x="502" y="434" type="curve" smooth="yes"/>
      <point x="502" y="196" type="line" smooth="yes"/>
      <point x="502" y="165"/>
      <point x="500" y="40"/>
      <point x="418" y="40" type="curve"/>
      <point x="418" y="0" type="line" smooth="yes"/>
      <point x="482" y="0"/>
      <point x="542" y="48"/>
      <point x="542" y="197" type="curve" smooth="yes"/>
      <point x="542" y="434" type="line" smooth="yes"/>
      <point x="542" y="569"/>
      <point x="476" y="605"/>
      <point x="418" y="605" type="curve"/>
      <point x="364" y="605" type="line"/>
      <point x="308" y="605"/>
      <point x="245" y="567"/>
      <point x="246" y="434" type="curve" smooth="yes"/>
      <point x="246" y="39" type="line" smooth="yes"/>
      <point x="286" y="39" type="line"/>
      <point x="286" y="434" type="line" smooth="yes"/>
      <point x="286" y="443"/>
      <point x="280" y="565"/>
    </contour>
    <contour>
      <point x="373" y="595" type="curve"/>
      <point x="413" y="595" type="line" smooth="yes"/>
      <point x="413" y="656"/>
      <point x="424" y="723"/>
      <point x="504" y="723" type="curve" smooth="yes"/>
      <point x="504" y="763" type="line" smooth="yes"/>
      <point x="410" y="763"/>
      <point x="373" y="699"/>
    </contour>
    <contour>
      <point x="648" y="656"/>
      <point x="648" y="594" type="curve" smooth="yes"/>
      <point x="648" y="2" type="line"/>
      <point x="688" y="2" type="line"/>
      <point x="688" y="597" type="line" smooth="yes"/>
      <point x="688" y="699"/>
      <point x="655" y="763"/>
      <point x="558" y="763" type="curve"/>
      <point x="558" y="723" type="line"/>
      <point x="644" y="723"/>
    </contour>
    <contour>
      <point x="40" y="24" type="line"/>
      <point x="80" y="24" type="line"/>
      <point x="80" y="595" type="line"/>
      <point x="40" y="595" type="line"/>
    </contour>
    <contour>
      <point x="40" y="0" type="line"/>
      <point x="364" y="0" type="line"/>
      <point x="364" y="40" type="line"/>
      <point x="40" y="40" type="line"/>
    </contour>
    <contour>
      <point x="330" y="-163" type="curve"/>
      <point x="314" y="-162"/>
      <point x="294" y="-153"/>
      <point x="285" y="-143" type="curve"/>
      <point x="247" y="-184"/>
      <point x="127" y="-185"/>
      <point x="127" y="-67" type="curve"/>
      <point x="87" y="-67" type="line"/>
      <point x="87" y="-191"/>
      <point x="202" y="-258"/>
    </contour>
    <contour>
      <point x="269" y="-146"/>
      <point x="433" y="-145" type="curve"/>
      <point x="485" y="-146" type="line" smooth="yes"/>
      <point x="485" y="-106" type="line"/>
      <point x="378" y="-106"/>
      <point x="287" y="-111"/>
      <point x="287" y="2" type="curve"/>
      <point x="247" y="2" type="line"/>
      <point x="247" y="-59"/>
    </contour>
  </outline>
</glyph>
<glyph name="tml_LllU" format="1">
  <advance width="759"/>
  <outline>
    <contour>
      <point x="40" y="544" type="curve" smooth="yes"/>
      <point x="43" y="-52" type="line" smooth="yes"/>
      <point x="43" y="-173"/>
      <point x="110" y="-232"/>
      <point x="195" y="-232" type="curve" smooth="yes"/>
      <point x="326" y="-232" type="line"/>
      <point x="326" y="-192" type="line"/>
      <point x="191" y="-192" type="line" smooth="yes"/>
      <point x="117" y="-192"/>
      <point x="81" y="-126"/>
      <point x="81" y="-56" type="curve" smooth="yes"/>
      <point x="82" y="550" type="line" smooth="yes"/>
      <point x="82" y="599"/>
      <point x="95" y="661"/>
      <point x="151" y="661" type="curve"/>
      <point x="235" y="661" type="line" smooth="yes"/>
      <point x="235" y="701" type="line"/>
      <point x="157" y="701" type="line" smooth="yes"/>
      <point x="63" y="701"/>
      <point x="39" y="613"/>
    </contour>
    <contour>
      <point x="380" y="-192" type="line" smooth="yes"/>
      <point x="380" y="-232" type="line"/>
      <point x="614" y="-232" type="line" smooth="yes"/>
      <point x="650" y="-232"/>
      <point x="667" y="-220"/>
      <point x="667" y="-177" type="curve" smooth="yes"/>
      <point x="667" y="-101" type="line" smooth="yes"/>
      <point x="667" y="-78"/>
      <point x="657" y="-52"/>
      <point x="614" y="-52" type="curve" smooth="yes"/>
      <point x="451" y="-52" type="line"/>
      <point x="451" y="-92" type="line" smooth="yes"/>
      <point x="627" y="-92" type="line" smooth="yes"/>
      <point x="627" y="-192" type="line" smooth="yes"/>
    </contour>
    <contour>
      <point x="419" y="32" type="line"/>
      <point x="419" y="-146" type="line"/>
      <point x="459" y="-146" type="line"/>
      <point x="459" y="32" type="line"/>
    </contour>
    <component base="tml_Ma" xOffset="177.016"/>
  </outline>
</glyph>
<glyph name="tml_MUu" format="1">
  <advance width="894"/>
  <outline>
    <contour>
      <point x="50" y="26" type="line" smooth="yes"/>
      <point x="50" y="-84"/>
      <point x="115" y="-138"/>
      <point x="199" y="-138" type="curve" smooth="yes"/>
      <point x="386" y="-138" type="line"/>
      <point x="386" y="-98" type="line"/>
      <point x="199" y="-98" type="line" smooth="yes"/>
      <point x="143" y="-98"/>
      <point x="90" y="-65"/>
      <point x="90" y="25" type="curve" smooth="yes"/>
      <point x="90" y="387" type="line" smooth="yes"/>
      <point x="90" y="449"/>
      <point x="129" y="483"/>
      <point x="177" y="483" type="curve" smooth="yes"/>
      <point x="231" y="483"/>
      <point x="258" y="452"/>
      <point x="258" y="405" type="curve" smooth="yes"/>
      <point x="258" y="365"/>
      <point x="227" y="332"/>
      <point x="173" y="331" type="curve" smooth="yes"/>
      <point x="173" y="291" type="line"/>
      <point x="242" y="291"/>
      <point x="298" y="346"/>
      <point x="298" y="400" type="curve" smooth="yes"/>
      <point x="298" y="411" type="line" smooth="yes"/>
      <point x="298" y="464"/>
      <point x="257" y="523"/>
      <point x="178" y="523" type="curve" smooth="yes"/>
      <point x="172" y="523" type="line" smooth="yes"/>
      <point x="103" y="523"/>
      <point x="50" y="465"/>
      <point x="50" y="387" type="curve" smooth="yes"/>
    </contour>
    <contour>
      <point x="440" y="-98" type="line" smooth="yes"/>
      <point x="440" y="-138" type="line"/>
      <point x="539" y="-138" type="line" smooth="yes"/>
      <point x="569" y="-138"/>
      <point x="581" y="-116"/>
      <point x="581" y="-92" type="curve" smooth="yes"/>
      <point x="581" y="15" type="line"/>
      <point x="540" y="15" type="line"/>
      <point x="540" y="-98" type="line" smooth="yes"/>
    </contour>
    <component base="tml_Ma" xOffset="297" yOffset="-2.344"/>
  </outline>
</glyph>
<glyph name="tml_NyI" format="1">
  <advance width="1150"/>
  <outline>
    <contour>
      <point x="931" y="728" type="line"/>
      <point x="1068" y="728"/>
      <point x="1071" y="641"/>
      <point x="1071" y="592" type="curve" smooth="yes"/>
      <point x="1071" y="2" type="line"/>
      <point x="1111" y="2" type="line"/>
      <point x="1111" y="595" type="line" smooth="yes"/>
      <point x="1111" y="698"/>
      <point x="1066" y="768"/>
      <point x="931" y="768" type="curve"/>
    </contour>
    <contour>
      <point x="710" y="593" type="curve"/>
      <point x="750" y="593" type="line" smooth="yes"/>
      <point x="750" y="654"/>
      <point x="762" y="728"/>
      <point x="877" y="728" type="curve" smooth="yes"/>
      <point x="877" y="768" type="line" smooth="yes"/>
      <point x="753" y="768"/>
      <point x="710" y="697"/>
    </contour>
    <component base="tml_Nya" xOffset="-6"/>
  </outline>
</glyph>
<glyph name="tml_RIi.alt" format="1">
  <advance width="657"/>
  <outline>
    <contour>
      <point x="323" y="570" type="line"/>
      <point x="365" y="570" type="line"/>
      <point x="365" y="593" type="line" smooth="yes"/>
      <point x="290" y="751"/>
      <point x="388" y="859"/>
      <point x="470" y="859" type="curve"/>
      <point x="568" y="859"/>
      <point x="576" y="792"/>
      <point x="576" y="777" type="curve" smooth="yes"/>
      <point x="576" y="718"/>
      <point x="527" y="702"/>
      <point x="504" y="702" type="curve" smooth="yes"/>
      <point x="479" y="702"/>
      <point x="445" y="725"/>
      <point x="445" y="741" type="curve" smooth="yes"/>
      <point x="419" y="710" type="line"/>
      <point x="429" y="689"/>
      <point x="463" y="662"/>
      <point x="501" y="662" type="curve" smooth="yes"/>
      <point x="664" y="662"/>
      <point x="654" y="899"/>
      <point x="480" y="899" type="curve" smooth="yes"/>
      <point x="344" y="899"/>
      <point x="249" y="753"/>
      <point x="323" y="594" type="curve" smooth="yes"/>
    </contour>
    <contour>
      <point x="323" y="0" type="line"/>
      <point x="363" y="0" type="line"/>
      <point x="363" y="593" type="line"/>
      <point x="323" y="593" type="line"/>
    </contour>
    <contour>
      <point x="40" y="0" type="line"/>
      <point x="80" y="0" type="line"/>
      <point x="80" y="593" type="line"/>
      <point x="40" y="592" type="line"/>
    </contour>
    <contour>
      <point x="228" y="555" type="line"/>
      <point x="459" y="555" type="line"/>
      <point x="459" y="595" type="line"/>
      <point x="228" y="595" type="line"/>
    </contour>
    <contour>
      <point x="40" y="555" type="line"/>
      <point x="175" y="555" type="line"/>
      <point x="175" y="595" type="line"/>
      <point x="40" y="595" type="line"/>
    </contour>
  </outline>
</glyph>
<glyph name="tml_RrIi" format="1">
  <advance width="783"/>
  <outline>
    <contour>
      <point x="488" y="578" type="line"/>
      <point x="529" y="578" type="line"/>
      <point x="528" y="601" type="line" smooth="yes"/>
      <point x="453" y="759"/>
      <point x="553" y="867"/>
      <point x="635" y="867" type="curve"/>
      <point x="733" y="867"/>
      <point x="741" y="800"/>
      <point x="741" y="785" type="curve" smooth="yes"/>
      <point x="741" y="726"/>
      <point x="692" y="710"/>
      <point x="669" y="710" type="curve" smooth="yes"/>
      <point x="644" y="710"/>
      <point x="610" y="733"/>
      <point x="610" y="749" type="curve" smooth="yes"/>
      <point x="584" y="718" type="line"/>
      <point x="594" y="697"/>
      <point x="628" y="670"/>
      <point x="666" y="670" type="curve" smooth="yes"/>
      <point x="829" y="670"/>
      <point x="819" y="907"/>
      <point x="645" y="907" type="curve" smooth="yes"/>
      <point x="509" y="907"/>
      <point x="414" y="761"/>
      <point x="488" y="602" type="curve" smooth="yes"/>
    </contour>
    <component base="tml_Rra"/>
  </outline>
</glyph>
<glyph name="tml_RrUu" format="1">
  <advance width="1191"/>
  <outline>
    <contour>
      <point x="1027" y="1" type="line"/>
      <point x="1067" y="1" type="line"/>
      <point x="1067" y="594" type="line"/>
      <point x="1027" y="594" type="line"/>
    </contour>
    <contour>
      <point x="911" y="556" type="line"/>
      <point x="1151" y="556" type="line"/>
      <point x="1151" y="596" type="line"/>
      <point x="911" y="596" type="line"/>
    </contour>
    <contour>
      <point x="703" y="556" type="line"/>
      <point x="857" y="556" type="line"/>
      <point x="857" y="596" type="line"/>
      <point x="703" y="596" type="line"/>
    </contour>
    <component base="tml_RrU" xOffset="-38"/>
  </outline>
</glyph>
<glyph name="tml_TIi.alt" format="1">
  <advance width="732"/>
  <outline>
    <contour>
      <point x="89" y="315" type="curve"/>
      <point x="121" y="346" type="line"/>
      <point x="63" y="563"/>
      <point x="112" y="757"/>
      <point x="245" y="823" type="curve" smooth="yes"/>
      <point x="308" y="854"/>
      <point x="448" y="886"/>
      <point x="565" y="850" type="curve"/>
      <point x="620" y="835"/>
      <point x="663" y="784"/>
      <point x="650" y="736" type="curve" smooth="yes"/>
      <point x="635" y="679"/>
      <point x="590" y="671"/>
      <point x="564" y="678" type="curve" smooth="yes"/>
      <point x="540" y="684"/>
      <point x="511" y="720"/>
      <point x="515" y="735" type="curve" smooth="yes"/>
      <point x="479" y="711" type="line"/>
      <point x="485" y="685"/>
      <point x="511" y="650"/>
      <point x="554" y="638" type="curve" smooth="yes"/>
      <point x="634" y="617"/>
      <point x="692" y="681"/>
      <point x="693" y="752" type="curve" smooth="yes"/>
      <point x="693" y="806"/>
      <point x="659" y="864"/>
      <point x="575" y="889" type="curve"/>
      <point x="463" y="920"/>
      <point x="328" y="911"/>
      <point x="222" y="855" type="curve" smooth="yes"/>
      <point x="63" y="771"/>
      <point x="19" y="541"/>
    </contour>
    <component base="tml_Ta"/>
  </outline>
</glyph>
<glyph name="tml_TtU" format="1">
  <advance width="675"/>
  <outline>
    <contour>
      <point x="101" y="325" type="line"/>
      <point x="61" y="325" type="line" smooth="yes"/>
      <point x="61" y="6" type="line" smooth="yes"/>
      <point x="61" y="-89"/>
      <point x="137" y="-165"/>
      <point x="219" y="-165" type="curve" smooth="yes"/>
      <point x="317" y="-165" type="line"/>
      <point x="317" y="-125" type="line"/>
      <point x="235" y="-125" type="line" smooth="yes"/>
      <point x="143" y="-125"/>
      <point x="101" y="-52"/>
      <point x="101" y="5" type="curve" smooth="yes"/>
    </contour>
    <contour>
      <point x="61" y="387" type="line"/>
      <point x="101" y="387" type="line" smooth="yes"/>
      <point x="101" y="602" type="line" smooth="yes"/>
      <point x="101" y="689"/>
      <point x="151" y="736"/>
      <point x="225" y="736" type="curve"/>
      <point x="439" y="736" type="line" smooth="yes"/>
      <point x="523" y="736"/>
      <point x="576" y="684"/>
      <point x="576" y="611" type="curve" smooth="yes"/>
      <point x="576" y="551" type="line"/>
      <point x="616" y="551" type="line" smooth="yes"/>
      <point x="616" y="610" type="line" smooth="yes"/>
      <point x="616" y="723"/>
      <point x="526" y="776"/>
      <point x="440" y="776" type="curve" smooth="yes"/>
      <point x="224" y="776" type="line"/>
      <point x="139" y="776"/>
      <point x="61" y="722"/>
      <point x="61" y="606" type="curve" smooth="yes"/>
    </contour>
    <contour>
      <point x="371" y="-125" type="line" smooth="yes"/>
      <point x="371" y="-165" type="line"/>
      <point x="435" y="-165" type="line" smooth="yes"/>
      <point x="572" y="-165"/>
      <point x="621" y="-81"/>
      <point x="621" y="-3" type="curve" smooth="yes"/>
      <point x="621" y="139" type="line" smooth="yes"/>
      <point x="621" y="202"/>
      <point x="601" y="261"/>
      <point x="494" y="261" type="curve" smooth="yes"/>
      <point x="413" y="261" type="line"/>
      <point x="413" y="221" type="line" smooth="yes"/>
      <point x="495" y="221" type="line" smooth="yes"/>
      <point x="577" y="221"/>
      <point x="581" y="168"/>
      <point x="581" y="139" type="curve" smooth="yes"/>
      <point x="581" y="-2" type="line" smooth="yes"/>
      <point x="581" y="-65"/>
      <point x="542" y="-125"/>
      <point x="432" y="-125" type="curve" smooth="yes"/>
    </contour>
    <contour>
      <point x="318" y="0" type="line"/>
      <point x="358" y="0" type="line"/>
      <point x="358" y="593" type="line"/>
      <point x="318" y="592" type="line"/>
    </contour>
  </outline>
</glyph>
<glyph name="tml_YI" format="1">
  <advance width="954"/>
  <outline>
    <contour>
      <point x="752" y="739" type="line"/>
      <point x="862" y="739"/>
      <point x="864" y="655"/>
      <point x="864" y="594" type="curve" smooth="yes"/>
      <point x="864" y="0" type="line"/>
      <point x="905" y="0" type="line"/>
      <point x="905" y="597" type="line" smooth="yes"/>
      <point x="905" y="692"/>
      <point x="882" y="779"/>
      <point x="752" y="779" type="curve"/>
    </contour>
    <contour>
      <point x="672" y="560" type="curve"/>
      <point x="672" y="595" type="line" smooth="yes"/>
      <point x="597" y="595"/>
      <point x="597" y="740"/>
      <point x="705" y="740" type="curve" smooth="yes"/>
      <point x="705" y="740" type="line" smooth="yes"/>
      <point x="705" y="779" type="line"/>
      <point x="705" y="779" type="line"/>
      <point x="545" y="779"/>
      <point x="544" y="560"/>
    </contour>
    <contour>
      <point x="575" y="0" type="line"/>
      <point x="714" y="0" type="line"/>
      <point x="714" y="595" type="line"/>
      <point x="672" y="595" type="line"/>
      <point x="672" y="145" type="line"/>
      <point x="672" y="50"/>
      <point x="629" y="40"/>
      <point x="581" y="40" type="curve" smooth="yes"/>
      <point x="575" y="40" type="line"/>
    </contour>
    <contour>
      <point x="64" y="140" type="line" smooth="yes"/>
      <point x="64" y="96"/>
      <point x="117" y="0"/>
      <point x="214" y="0" type="curve" smooth="yes"/>
      <point x="220" y="0" type="line"/>
      <point x="220" y="40" type="line"/>
      <point x="214" y="40" type="line" smooth="yes"/>
      <point x="168" y="40"/>
      <point x="104" y="94"/>
      <point x="104" y="145" type="curve"/>
      <point x="104" y="595" type="line"/>
      <point x="64" y="595" type="line"/>
    </contour>
    <contour>
      <point x="274" y="0" type="line"/>
      <point x="280" y="0" type="line" smooth="yes"/>
      <point x="319" y="0"/>
      <point x="379" y="14"/>
      <point x="398" y="39" type="curve"/>
      <point x="407" y="0" type="line"/>
      <point x="522" y="0" type="line"/>
      <point x="522" y="40" type="line"/>
      <point x="516" y="40" type="line" smooth="yes"/>
      <point x="445" y="40"/>
      <point x="428" y="60"/>
      <point x="428" y="145" type="curve" smooth="yes"/>
      <point x="428" y="595" type="line"/>
      <point x="388" y="595" type="line"/>
      <point x="388" y="145" type="line"/>
      <point x="388" y="61"/>
      <point x="338" y="40"/>
      <point x="280" y="40" type="curve" smooth="yes"/>
      <point x="274" y="40" type="line"/>
    </contour>
  </outline>
</glyph>
